<svg xmlns="http://www.w3.org/2000/svg" width="970" height="600" viewBox="0 0 970 600"><path fill="#FFF" stroke="#B61E20" stroke-width=".786" stroke-miterlimit="10" d="M332.13 479.963l-2.04 7.483-6.122 1.362-3.402 3.404 2.722 7.48 2.72 6.125 2.72 1.36 4.083-8.162.682-7.486v-4.764l-1.362-6.803zM328.05 510.58l-5.444 4.76-8.163-1.36-1.36 6.124 3.402 2.04-.68 23.814 6.12.68 3.403-3.403 4.763 1.36.68-15.646 4.082-4.085.68-3.4-2.72-3.402 1.36-4.084-6.123-3.4zM247.096 190.136l-9.523 4.762-2.04 6.804-6.804 9.525-4.762 4.763 2.72 5.443-4.76 10.205 5.442-.68 2.72 2.72-.68 5.443-9.523 7.485 3.4 7.484 13.605.68-6.12 6.802 3.4 6.124 4.082 2.04-3.402 10.886-12.246-2.042-8.163 6.123 3.402 6.125-2.72 2.722-10.886 3.4-3.402 5.445 3.4 1.36 8.164-1.36 4.082 6.802 10.204.68-7.483 5.442h-6.122l-8.164-.68-3.402 2.72-13.605 7.485 5.442 4.763 4.762-4.084 5.443-.68 6.802 3.402 2.72-4.08h6.123l4.08 3.4 5.444-2.72 8.843 6.8 23.13 1.363 7.482-2.722 1.36-4.764-10.884-.68 2.042-4.762 8.844-3.4 6.122-12.247-10.204-6.124-4.762-2.04 4.08-2.72-1.36-8.847.682-13.605-7.484-8.845v-14.968l-6.802-8.844-4.762-.68v-2.72l6.803-2.722-2.042-2.72h4.76l10.886-12.247-.68-2.04-6.804-6.805h-10.203l12.245-9.524.68-4.082-13.606-4.762z"/><path fill="#F7F1E9" stroke="#B61E20" stroke-width=".786" stroke-miterlimit="10" d="M517.845 27.534h-6.12l8.84-10.205-10.883-3.403-2.04 7.484-5.444-2.04 2.723-8.844-4.08-1.36-1.362 2.04-4.76 2.042-5.443 12.245-.68-10.885-3.404.68-6.8 14.968-9.524-2.722-7.482 11.566-1.363-2.72-17.005 6.8-4.76 11.567-11.566 8.846-3.403 14.287-10.204 8.164-7.482 20.41-9.524 14.287-5.44 1.363-7.485 4.76-2.72 5.444 2.72 4.082 4.763-.682-1.36 4.084-11.566-.68-6.802 8.163-7.483-3.402-4.082 3.402-2.04 8.163-9.523-2.04-2.723 4.08 2.723 2.043.68 2.043h-4.082l-2.72 8.844 4.76 2.042-6.122 2.038-.68 12.247 6.802-.68-1.36 6.123-8.163 5.443v3.402l3.4 2.04 2.72 6.125h-6.12l-.68 7.483 4.76 2.04 11.565 8.846 19.05-14.288 6.8-2.04 2.723-8.165 2.04 6.124 1.36 2.04.68 10.885 2.043 1.362 4.76-2.04-.68-12.93 4.082-6.802 5.443-15.648-2.722-6.123 4.082-6.122-1.36-33.337 4.76-5.44 6.125-5.444 6.122 4.082-1.36-12.927 6.122-23.13 9.524-17.01 4.762-5.442 2.722-9.526 10.884-4.08 2.72-6.805h6.122l4.764-4.08-2.042-5.444 10.885-1.36 4.08 8.845h19.05v-16.33l13.606-7.483 4.762 6.123 6.12-7.484"/><path fill="#FFF" stroke="#B61E20" stroke-width=".786" stroke-miterlimit="10" d="M487.914 98.29v.68h.68l1.362.68.68.682.678.68h.68l.683.68.68.68h3.4l2.04 10.885-6.12 2.722-9.525 19.728-3.402.68-6.123 11.568h-2.72l-4.082 6.802 5.443 19.05-.68 7.484-2.722 1.36 1.36 8.164 10.884 2.722 4.08 3.4 3.404 4.764 10.884-8.164 23.13-5.443 9.524-6.122 6.12-11.566 4.085-4.083 1.36-10.204 9.524-14.287-14.285-10.886 1.36-8.844-6.803-4.763v-4.083l-6.125-1.36 3.403-5.442-4.76-5.443 4.08-10.206L519.21 79.24l4.758-13.608-11.563-12.924-.678-18.37-4.762-5.443-13.607 7.484v16.328h-19.048l-4.08-8.845-10.886 1.36 2.72 5.443-1.36 1.36 8.164 6.804 10.204 5.443 2.04 17.688 6.804 16.33M309.682 465.676l1.36-10.204-6.803 1.36.68-8.845v-4.764l-4.082-2.72 8.164-7.484-.682-10.887h-4.08l-2.04.68-3.402 3.402-2.72-4.082 9.523-14.968h5.442l6.123-8.163h4.76l4.083-12.927 7.484-8.844-21.77-11.566v-.68l-5.44-2.72-6.804-4.762-1.36-5.443-4.763 2.04-4.76-12.927-9.526-2.04-.68-8.165-6.123 1.36-6.803 4.763-2.04 6.805-5.444 2.72-10.203 3.403-.68 3.4-6.124 2.723-8.162-4.08v-6.805l-4.08-2.04-2.722.68.68 13.607-4.082 4.08-4.76-3.4-3.403.68-.68-2.042-2.04-3.4-12.245-.68-10.885-.68-1.36 2.04 4.08 4.082-4.76 2.72 3.4 3.403h2.042l8.843 8.844 5.442.68 4.082 7.483 4.762 1.362-4.082.68.68 8.844 6.123 10.206-2.72 10.204 4.762 8.162-4.763-2.72-5.44 15.65-4.085 8.163-5.442 4.76-.68 3.4 1.36 5.447 18.367 9.522 4.08-.678 4.764.678 6.802 4.083v2.72l11.564 5.445 5.443-2.044 1.36-9.522 14.965-3.402 6.802 1.36 9.526 7.485 8.842 2.722 9.524-2.723 3.4-4.763 3.402-.68"/><path fill="#FFF" stroke="#B61E20" stroke-width=".786" stroke-miterlimit="10" d="M113.763 439.144L109 423.497l23.13-6.126 3.402 6.127 18.367 2.718 2.72 5.443 19.728 6.125 6.122 6.122 4.762-2.04 3.402-.68.68 4.083 9.524 1.357v-.68l-.68.68-.68 3.4 1.36 5.447 18.367 9.522 4.08-.678 4.764.678 6.802 4.083v2.72l11.564 5.445 5.443-2.044 6.12 4.765-3.4 4.765-.68 3.4-32.653 8.843-.68 4.765-19.05 10.885-.68 12.245 3.402 6.806-8.164 2.04-8.844 7.484v3.402l-6.12 2.72-2.723-2.72-6.803 2.72-6.123 6.123-25.85-6.125-19.73 4.083-8.162-8.84-.68-10.887-6.123-5.444-6.804 1.363-2.04-1.364 5.442-10.886 4.08-1.36.68-6.802 4.764-5.443-.68-14.97 2.04-4.76 6.122-.68v-4.083l4.763-9.524 6.803-4.083 5.442-2.723-4.08-12.244-4.084-.68-10.203-2.72-3.402-6.124"/><path fill="#FFF" stroke="#B61E20" stroke-width=".786" stroke-miterlimit="10" d="M96.077 526.226l-8.165-4.082-6.12.68-.683-2.72 10.883-21.77-5.44-1.363 2.04-6.12H83.15l.68-10.206 6.803-2.04 6.804-6.125 7.482-13.608 4.08-19.05 4.763-.678 3.402 6.124 10.203 2.72 4.083.68 4.082 12.244-5.442 2.723-6.803 4.083-4.763 9.524v4.084l-6.122.678-2.04 4.762.68 14.97-4.763 5.442-.68 6.8-4.082 1.362-5.44 10.886M217.845 248.646l-4.762-10.205h-6.123l1.36-3.4-2.72-1.36-2.72-.68-10.885 2.04-4.082 4.08v6.805h-6.122l-8.164-4.763v6.804l-6.8 5.442 5.44 8.164-4.76 4.763-2.042 2.722 4.76-.68 3.402-2.042-8.162 6.803-10.205-1.36v7.484l3.4 1.36-4.76 4.08 4.76 7.486 24.49-4.76 4.763-2.725 6.802 2.042 11.565-16.328-.68-10.884h7.483zM278.39 330.968l.68 8.164 9.524 2.04 4.76 12.928 4.764-2.04 1.36 5.442 6.803 4.762 4.762-8.164v-9.525h-4.76l-1.363-4.763 4.082-2.72-4.083-2.723v-4.082h-9.524l-6.802 2.72-3.403-1.36-1.357-2.04-5.443 1.36"/><path fill="#FFF" stroke="#B61E20" stroke-width=".786" stroke-miterlimit="10" d="M311.042 344.575h-4.76l-1.363-4.763 4.082-2.72-4.083-2.723v-4.082h-9.524l-6.802 2.72-3.403-1.36-1.357-2.04 2.72-.68 8.164-4.763.68-2.723 10.204-13.605 4.762 4.08-2.72 3.402-.68 3.402 8.843-2.722-2.042-5.442 1.36-10.886 16.327 2.042-.68 6.123-5.442 6.122 2.04 4.762-12.244 10.205-.68 8.845-2.722 2.72-.68 4.083"/><path fill="#FFF" stroke="#B61E20" stroke-width=".786" stroke-miterlimit="10" d="M331.45 301.714l-.68 6.123-5.442 6.122 2.04 4.762-12.244 10.205-.68 8.845-2.722 2.72-.68 4.083v9.525l.68 11.564 21.77 11.567-7.484 8.845-4.082 12.927 4.082 4.083 6.122-4.762h3.402l5.444 4.083 5.44.68 6.804-.68 4.08-.68v4.082l14.286-3.402v4.08h8.165v-11.564l11.565-6.124-5.443-14.97-6.12-.68-4.084-15.646 15.647-3.402 4.76-2.722 4.082-6.123h3.403l2.72 2.04 1.36-2.04-3.4-11.567 2.04-6.802-4.76-4.082.68-3.403 4.76-2.04-1.36-12.925-11.564-9.526-4.763-3.402-7.482 4.08-11.563 1.363 3.4-6.122-8.843-1.362-4.763-6.123-9.522-1.36-.68 8.163 2.72 6.805h-6.122l-4.76 5.445-2.043-4.084h-8.163v3.404M360.02 283.343l1.362-9.524 6.803-12.248h4.762l.68-6.122-5.442-4.082 1.362-3.402-8.845-1.36v5.442l-4.762-2.04-2.04 2.04h-4.083l-2.04 17.01 2.72 2.72v10.206l9.524 1.36"/><path fill="#FFF" stroke="#B61E20" stroke-width=".786" stroke-miterlimit="10" d="M368.185 269.057l4.762 7.484-4.08 2.04-4.763-5.442zM371.586 280.622l-4.08.68v3.4h3.4zM372.947 284.703l3.402-2.04 4.08 1.36v2.042l-4.762 2.042zM387.913 264.293l-1.36 12.928-3.402 4.082-4.76-4.76-2.722-6.125 4.083-4.762 3.4 3.402.682-4.764h4.08M396.757 286.065l4.762 6.123-1.363 2.72-4.08-2.72-1.36-2.042zM411.724 278.58l3.4 4.763-4.082-.68-2.04-2.72zM372.947 235.04l-8.163 6.122-13.604 3.402-.682 4.763h2.722l4.08-4.084 3.402-.68 7.483 1.362 4.762-2.72zM402.88 564.325l-19.73 5.444-4.08-5.445-8.164 1.36-4.08-1.36-1.36 5.444 1.36 6.8h3.4l8.164 4.766 10.883 5.44v2.044l8.845 2.038 1.36-6.122h4.082l1.36-2.04-4.763-4.76 1.362-6.804 3.4-5.446zM223.286 259.533l-2.72 4.08 2.04 1.36 2.722-2.04.68-3.4zM204.92 259.533h8.163l4.762-10.887-4.762-10.205h-6.123l1.36-3.4-2.72-1.36-2.677-.67-6.65 9.16-4.278 7.837 2.04 3.4 2.04 1.363 5.443-1.362 3.4 2.72v3.405M220.566 218.71l-3.4 3.402 2.04 2.72 2.72-1.358.68-2.04zM215.804 206.465l5.443-9.526h4.76l5.444-4.762-4.08-4.083-5.443 4.763-8.163 6.123zM221.247 204.424l2.72 4.08 3.403-4.76-4.764-1.362zM262.063 191.382l3.4-2.722-4.76-4.76-2.042 2.04zM282.47 166.324l-2.04 6.804.68 6.122 4.08-4.082v-9.524zM384.513 223.474l.68 6.123v12.245l8.162 16.328-3.4 6.804 4.08 11.567h6.122l4.084 2.722 4.763-11.566 14.284-2.04 2.723-6.805 6.12-14.966-4.08-7.485h4.763l-1.363-12.247 11.565-6.802 1.362 2.72 8.162-21.09-7.484-9.523-6.802-1.362-.68-14.967 2.04-.68v-14.97l3.4-1.358 10.886-13.607h4.082l12.924-21.772-3.4-2.04 8.844-16.327 4.76-.68 6.123-3.403-6.123-16.33-2.04-17.687-11.564-6.123-7.485-6.123-3.4 2.72h-6.12l-2.722 6.805-10.884 4.08-2.722 9.526-4.76 5.443-9.525 17.01-6.123 23.13 1.36 12.928-6.12-4.082-6.125 5.443-4.762 5.44 1.36 33.338-4.082 6.123 2.722 6.124-5.443 15.648-4.082 6.803.68 12.928-4.76 2.04M496.758 296.27l-3.402-6.124-4.762-.68H476.35l-15.648.68-8.163 4.763-6.804-6.124-10.204-2.72-7.483 6.122-19.047 6.123-3.402 6.125 1.36 12.925-4.76 2.04-.68 3.404 4.76 4.082-2.04 6.802 3.4 11.567-1.36 2.722 5.444 4.082 11.563 2.718-.68 4.764 3.403 2.722 4.08-2.043 7.484 3.405.68 6.123 8.162-.68 3.4 8.163 9.526-4.08 6.123 4.08 14.966-1.36 8.845 5.443 4.76-11.565 7.485-7.484 10.205-5.444-.68-2.72-5.444-2.04-6.802-19.73-2.72-8.165 6.12-6.123z"/><path fill="#FFF" stroke="#B61E20" stroke-width=".786" stroke-miterlimit="10" d="M391.315 388.798l-5.443-14.97-6.12-.68-4.084-15.646 15.647-3.402 4.76-2.722 4.082-6.123h3.403l3.4 1.36-.68 1.362 5.444 4.082 11.563 2.718-.68 4.764 3.403 2.722 4.08-2.043 7.484 3.405.68 6.123 8.162-.68 1.362 3.4-4.082 2.043-6.802 2.72-6.803 5.445-2.04 5.444-14.286-1.363-4.08-2.723-7.485 4.085-10.885.678"/><path fill="#FFF" stroke="#B61E20" stroke-width=".786" stroke-miterlimit="10" d="M352.54 413.97l4.76 1.36 4.763-2.72 12.246 2.72 6.8 8.167 8.163 3.4 10.205-.682 5.443-4.763 3.402 3.402 8.843-6.123 6.803-8.842-4.08-4.08 8.84-2.044-.68-15.645-14.284-1.363-4.08-2.723-7.485 4.085-10.885.678-11.564 6.124v11.564h-8.164v-4.08l-14.285 3.402v-4.083l-4.08.68-6.804.68v4.762l-.68 4.763 6.803 1.36"/><path fill="#F7F1E9" stroke="#B61E20" stroke-width=".786" stroke-miterlimit="10" d="M321.926 399.002l4.082 4.083 6.122-4.762h3.402l5.444 4.083 5.44.68v4.76l-.68 4.764 6.803 1.36-.68 6.125-2.043 2.038-5.44-.68-2.722 3.4-4.082-4.08-6.803 6.806-4.08-4.766-6.804 6.804-10.884-4.083-.682-3.402h-4.08l-2.04.68-3.402 3.402-2.72-4.082 9.523-14.968h5.442l6.123-8.163h4.76"/><path fill="#FFF" stroke="#B61E20" stroke-width=".786" stroke-miterlimit="10" d="M309.682 465.676l6.803-.682 8.843-8.84h5.442l5.442 3.4 6.122 6.122 4.082 8.845.68 8.844 10.884 12.928 16.33 19.048 12.923.68 1.36 7.486 8.164 1.36 3.4 7.485 6.804 4.08h2.723l4.76 19.05-5.44 4.766-1.362 12.242h3.402l10.886-10.885.68-7.482 5.44-2.04v-8.166l-8.16.682 8.16-15.647 8.166 3.4 3.4 7.482 6.122-7.48-9.522-8.846-14.967-9.527-6.804-4.762 4.083-2.04-1.36-2.042-17.01-3.4-4.76-2.72-8.163-14.97-6.802-14.97-8.164-7.483 1.362-8.163-1.362-8.162 2.72-3.403 4.765-2.72 9.523.677 3.402-4.083-4.762-2.72 1.36-6.123-8.162-3.4-6.8-8.167-12.247-2.72-4.762 2.72-4.76-1.36-.68 6.125-2.043 2.038-5.44-.68-2.722 3.4-4.082-4.08-6.803 6.806-4.08-4.766-6.804 6.804-10.884-4.083v7.484l-8.164 7.484 4.08 2.72v4.763l-.68 8.845 6.804-1.36-1.36 10.204"/><path fill="#FFF" stroke="#B61E20" stroke-width=".786" stroke-miterlimit="10" d="M417.845 418.73h-.68l-8.843 6.124-3.4-3.402-5.444 4.763-10.205.682-1.36 6.122 4.762 2.72-2.72 4.082-4.083 4.083 4.763-.682 6.803-2.72 8.163 2.042.68-4.084 4.082-6.802 6.122-2.722 8.163-2.04-2.72-2.722-.68-3.402-3.402-2.04"/><path fill="#F7F1E9" stroke="#B61E20" stroke-width=".786" stroke-miterlimit="10" d="M445.056 441.865l1.36 3.403 3.4 1.357h4.084l1.36 1.362-2.72 3.402v4.082h-2.723l-3.4-4.083h-8.163l-11.565-3.403h-5.443l-2.72 4.764-4.763-4.082-2.04 2.72 5.44 13.606 7.483 9.527 7.484 8.844.683 2.042.678 1.36 8.165 3.4-.68 4.084-7.484-3.4-7.48-4.084 6.12-1.36-11.564-6.803h-5.44l-10.205-13.61 3.402-.677-6.123-12.927-5.443-4.765-7.484 6.805-3.4-9.525 4.762-.682 6.803-2.72 8.163 2.042.68-4.084 4.082-6.802 6.122-2.722 8.163-2.04 2.722 3.404 6.12 4.082 6.123 6.803 5.443.68"/><path fill="#FFF" stroke="#B61E20" stroke-width=".786" stroke-miterlimit="10" d="M430.09 262.934l6.124-14.968-2.723-2.723-5.44 12.927v4.764h2.04zM423.968 426.897l3.4 3.403 6.123 4.082 6.123 6.803 5.443.68 1.36-3.404h3.4l3.403-4.76 7.482 1.36 8.844-.678 3.402-4.082 6.122-2.043 8.844-15.647-2.04-2.045 8.843-8.16-3.403-6.126-3.4-4.08h-4.762l-.68-2.043-12.245.682-8.164 6.12-8.163-1.36-9.523 10.208-4.764 1.357-6.8-5.44-4.084-2.04v4.08l-8.843 2.043 4.08 4.08-6.122 8.163 3.402 2.722.68 3.402 2.04 2.723"/><path fill="#F7F1E9" stroke="#B61E20" stroke-width=".786" stroke-miterlimit="10" d="M487.914 392.2v-6.805l1.36-4.76h.682l4.08-10.887 7.484-7.484 10.205-5.444-.68-2.72-5.444-2.04-6.802-19.73 38.096-7.485 34.692-.68 12.246-11.566 4.08 4.76h4.083v-3.4l13.606-.682 5.443 6.804-3.4 9.526 2.04 7.483 10.886 2.042 2.037 6.123 22.45-2.04 8.164 3.4h8.164l.68 6.804 4.762.68.682 6.12 4.76 2.725 4.082 10.884-8.163 5.442 1.36 6.803-4.762 2.044.68 6.12-6.805.682-10.204 5.44-9.52 8.165 8.84 10.204h11.567v6.805l-15.646 6.123-6.124 10.207h-8.162l-2.04-10.207-12.246-1.358v-3.403l12.247-9.526-5.443-2.72-4.08 4.08H604.92l-4.08-2.037v-3.404l2.722-4.08-10.885 2.037-8.166 8.167 2.723 2.72-6.802 12.927.68 4.762v.682l-6.123-4.083-6.12 2.724-3.402-2.042 8.163-12.928.682-6.803 7.48-1.358 2.042-4.083-5.442-2.042-2.72-4.08-.683-8.848h-3.4l-23.81-11.565-10.883 7.483-23.13 3.4-1.36 3.406-14.286 1.36-3.4.68-3.404-5.445-2.04-2.04-1.36-2.04"/><path fill="#FFF" stroke="#B61E20" stroke-width=".786" stroke-miterlimit="10" d="M428.05 388.12l2.04-5.445 6.804-5.444 6.802-2.72 4.082-2.04 2.04 4.76 9.524-4.08 6.123 4.08 14.966-1.36 8.845 5.443.68-.68-2.04 4.762v6.804h-4.763l-.68-2.043-12.245.682-8.164 6.12-8.163-1.36-9.523 10.208-4.764 1.357-6.8-5.44-4.084-2.04z"/><path fill="#F7F1E9" stroke="#B61E20" stroke-width=".786" stroke-miterlimit="10" d="M488.594 289.466l1.362-8.844-14.97-6.123h-.678l-2.04 8.164-2.04-7.485-10.207 7.484.682 7.482 15.648-.68z"/><path fill="#FFF" stroke="#B61E20" stroke-width=".786" stroke-miterlimit="10" d="M525.33 274.5l-11.566-10.886-12.924-2.042-12.246 1.362-17.006 4.08v.89l3.4 6.595 14.968 6.122-1.362 8.844 4.762.68 3.402 6.125 22.45-4.762 4.08-5.443z"/><path fill="#FFF" stroke="#B61E20" stroke-width=".786" stroke-miterlimit="10" d="M471.588 267.015l17.006-4.08 12.246-1.363 12.924 2.042L525.33 274.5l13.605-13.607-8.844-23.812-21.768-5.442-9.524 1.36-.68 12.927-4.762 2.04-8.165-6.123-2.038-5.443h-8.165l-4.76 11.566-1.36 10.885z"/><path fill="#FFF" stroke="#B61E20" stroke-width=".786" stroke-miterlimit="10" d="M526.688 204.424l-17.686-1.36-14.285 4.08-6.123 4.764 6.802 14.287 4.082-.68-.68 6.803 9.524-.68 21.77 5.443-3.404-13.606zM450.5 235.72l-6.123 6.804v8.162l7.48-6.122.682-6.123zM485.874 222.793h-7.484v9.525l7.484-6.804zM487.914 215.31l-4.762 2.72-5.442-1.36 5.442-4.082z"/><path fill="#F7F1E9" stroke="#B61E20" stroke-width=".786" stroke-miterlimit="10" d="M441.655 490.167l-8.164-3.4-.677-1.36-.682-2.043-7.483-8.843-7.482-9.526-5.44-13.605 2.04-2.722 4.76 4.083 2.722-4.763h5.442l11.564 3.402h8.162l3.4 4.082h5.443l-1.36 9.522 4.762 4.083-3.4 4.765h-5.445v4.083l-3.4 4.758z"/><path fill="#F7F1E9" stroke="#B61E20" stroke-width=".786" stroke-miterlimit="10" d="M452.54 501.054l5.442-10.887 10.884 2.045 1.36 10.203 4.76-3.4h8.166l3.402-3.402 9.523.68 2.72-17.012-4.76-8.84v-6.124l4.08-2.042-4.08-8.165-4.08 2.043-8.167-.68-1.36-8.848-4.76-2.72-1.362-6.803-4.762-2.72-8.844.68-7.483-1.36-3.403 4.76h-3.4l-1.36 3.403 1.36 3.403 3.4 1.357h4.083l1.36 1.362-2.72 3.402v4.082h2.72l-1.36 9.522 4.762 4.083-3.4 4.765h-5.445v4.083l-3.4 4.758-4.762 7.484-.68 4.083 4.08 1.363z"/><path fill="#F7F1E9" stroke="#B61E20" stroke-width=".786" stroke-miterlimit="10" d="M466.145 541.194l6.803-6.802.68-6.125 4.762-2.722-1.36-3.4-5.442-6.805-1.36-6.122v-6.803l-1.362-10.203-10.884-2.045-5.443 10.887 2.04 5.445 5.44 1.356-3.4 12.248v9.523z"/><path fill="#FFF" stroke="#B61E20" stroke-width=".786" stroke-miterlimit="10" d="M477.03 522.144l20.408-5.44 4.76-8.167-3.4-11.566-2.72-.678-9.524-.68-3.402 3.403h-8.165l-4.76 3.4v6.803l1.36 6.122 5.442 6.804z"/><path fill="#F7F1E9" stroke="#B61E20" stroke-width=".786" stroke-miterlimit="10" d="M565.465 437.102l8.163-12.928.682-6.803 7.48-1.358 2.042-4.083-5.442-2.042-2.72-4.08-.683-8.848h-3.4l-23.81-11.565-10.883 7.483 18.367 16.33 6.803 19.728-2.04 4.083v2.72l2.04 1.362h2.72z"/><path fill="#FFF" stroke="#B61E20" stroke-width=".786" stroke-miterlimit="10" d="M571.586 465.676l1.363-5.443-.68-10.885-.684-4.762 2.724-1.363 2.04 4.764 4.76-6.802-6.123-4.764-6.12 2.724-4.083-2.042h-2.72l-2.04-1.363v-2.72l2.04-4.084-6.803-19.727-18.366-16.332-23.13 3.4-1.36 3.406-14.286 1.36-3.4.68-8.844 8.84 2.04 2.046-8.844 15.647-6.122 2.043-3.402 4.082 4.762 2.72 1.36 6.803 4.763 2.72 1.36 8.847 8.166.68 4.08-2.043 4.082 8.164 1.36 6.803 14.965.682 23.128-1.364 2.726-1.357 6.123-4.766 12.243-2.04 2.72 3.4z"/><path fill="#FFF" stroke="#B61E20" stroke-width=".786" stroke-miterlimit="10" d="M565.465 493.568l-6.12-5.44 6.12-15.65 5.442-.68.68-6.122-10.205-2.04-2.72-3.403-12.243 2.04-6.124 4.766-2.725 1.356-23.127 1.363-14.965-.683-1.36-6.803-4.082 2.042v6.123l4.762 8.84-2.72 17.012 2.72.68 3.4 11.565v.68l35.373-.68h2.046l1.358-2.72-.678-4.082 5.442-2.72 8.84-4.083 4.085 2.04z"/><path fill="#FFF" stroke="#B61E20" stroke-width=".786" stroke-miterlimit="10" d="M466.145 541.194l5.443 4.082 2.72 6.803h4.762l-2.04 5.442 5.443 5.443 9.522-2.72 12.245 2.04 2.723 2.04-4.084.68-10.203-2.04-10.204 5.443 6.12 10.205-1.36 2.723 6.123 10.886 3.402-4.765 2.72 6.124 3.4-2.722 8.847 4.083-2.043-10.204-4.08-8.165 4.08 1.365 4.76-2.045-2.04-4.08 2.723-3.402 7.484 3.403v-5.443L509 558.2l-4.762-4.08.68-4.76h2.722l4.083-2.045-10.885-10.204v-10.203l3.4-.68 8.163 10.203 1.36-3.402 4.764.682-2.043-4.083h6.125l-8.167-8.163 10.204-4.08 18.37-.68v4.76h4.082v-4.08l1.358-3.405 1.362-11.565-4.082-3.4-5.442 2.72.678 4.082-1.358 2.72h-2.045l-35.372.68-4.76 7.486-20.41 5.44 1.362 3.402-4.763 2.722-.68 6.125z"/><path fill="#F7F1E9" stroke="#B61E20" stroke-width=".786" stroke-miterlimit="10" d="M879.07 153.398V1H662.064l-2.72 5.443h-3.403l2.72-4.76L651.18 1l1.36 6.125-5.44-2.722-5.444 4.08v9.526l-6.124 4.08-2.04 5.444 4.08 6.124-1.358 11.565h-4.762l-3.4-2.72-1.362-3.403h-6.12l-.682-4.763 6.802-6.123-8.843-6.123-12.928 2.043 7.483 8.164v14.287l8.166 3.402 3.4 13.607-10.885-5.443-3.4 2.04-1.365 8.164-8.84 7.484-2.042 9.525 20.41 14.97-15.65-4.084-12.242.68-7.483-2.04-3.402 3.4 3.403 6.803 8.162 4.762 2.722 4.764-10.204 1.36-2.722-6.125-8.844 1.362-10.204-13.607 2.723-7.484L551.86 79.92l-5.44-3.402-4.083-4.76 7.483 4.08 2.72-3.4 6.123 4.762 14.286-1.362 16.324 1.362 8.164-9.525 4.76-8.165-1.36-4.763-4.76-3.4-6.804-10.205-10.203-.682-19.726-10.204-8.845-2.042-10.204 6.804-5.443-4.762 4.763-2.722-12.25-5.443-2.037 5.444h-8.167l-5.438 6.803.678 18.37 11.563 12.925-4.758 13.608 10.883 11.566-4.08 10.206 4.76 5.443-3.403 5.442 6.125 1.36v4.083l6.804 4.763-1.36 8.844 14.285 10.886-9.524 14.287-1.36 10.204-4.083 4.083-5.44 11.566-.68 6.802 15.643 3.403-15.644 4.08-5.444 8.166v19.05l3.403 13.607 8.845 23.813 11.564-2.042 13.605 5.443 12.246 15.65.678 3.4 10.884 7.485v4.08l-7.48 8.846 3.4 8.845 4.08 4.76h4.083v-3.4l13.606-.682 5.443 6.804-3.4 9.526 2.04 7.483 10.886 2.042 2.037 6.123 22.45-2.04 8.164 3.4h8.164l.68 6.804 4.762.68.682 6.12 4.76 2.725 4.082 10.884-8.163 5.442 1.36 6.123 12.245-4.082h3.4l-2.72 3.4-14.285 10.21.677 2.72 2.045 1.36 3.4-2.043 5.44 3.4-2.72.684-.68 5.442-3.402.68-2.72 10.205-6.123 2.044 13.607 9.522 24.488 6.125 10.202 6.805 10.204-12.247 46.942.682 4.08-3.403 6.803.682 1.363 4.078 12.243 2.724 17.69 2.04.68 3.4 10.883-1.36 2.04-4.08-.68-.68-24.493-16.33-10.204-16.328-10.204-4.765-2.04-9.523 2.04-12.928-1.358-9.525 4.08.68 2.042 4.763 7.484-8.165-3.402-5.442 4.76-4.08-6.123-.682 2.72-6.123-4.08-6.803-7.48-2.04-12.247 2.72-1.36-4.763h-8.166l2.724-10.887-6.124-10.884 4.763-6.805 1.36-6.123 3.402-3.4 4.762 6.802 6.803-1.36v-4.763l-5.444-6.122 12.927-32.658 10.884 2.042 5.442-4.083 18.366-1.36 8.163 7.483 2.04-6.124 10.205-2.04 4.08-10.206h6.802l2.72-8.844 13.607-3.402 10.204 3.402 1.362-6.805 2.72-.68.68-16.328-12.244 2.04-4.08-20.41 8.16-4.762v-4.762l-9.522 2.72-6.122-11.565 23.81-21.09"/><path fill="#F7F1E9" stroke="#B61E20" stroke-width=".786" stroke-miterlimit="10" d="M498.798 332.33l38.096-7.485 34.692-.68 12.246-11.566-3.4-8.846 7.48-8.845v-4.082l-10.884-7.485-.677-3.4-12.245-15.65-13.606-5.442-11.565 2.043L525.33 274.5l-2.042 11.565-4.08 5.443-22.45 4.763 5.44 21.772-6.12 6.123z"/></svg>