<?xml version="1.0" encoding="utf-8"?>
<!-- Generator: Adobe Illustrator 15.1.0, SVG Export Plug-In . SVG Version: 6.00 Build 0)  -->
<!DOCTYPE svg PUBLIC "-//W3C//DTD SVG 1.1//EN" "http://www.w3.org/Graphics/SVG/1.1/DTD/svg11.dtd">
<svg version="1.1" xmlns="http://www.w3.org/2000/svg" xmlns:xlink="http://www.w3.org/1999/xlink" x="0px" y="0px" width="970px"
	 height="600px" viewBox="0 0 970 600" enable-background="new 0 0 970 600" xml:space="preserve">
<g id="Calque_1">
	<polygon fill="none" stroke="#B61E20" stroke-width="0.7857" stroke-miterlimit="10" points="332.13,479.963 330.091,487.446 
		323.968,488.808 320.566,492.212 323.288,499.692 326.008,505.817 328.729,507.178 332.811,499.015 333.492,491.529 
		333.492,486.766 332.13,479.963 	"/>
	<polygon fill="none" stroke="#B61E20" stroke-width="0.7857" stroke-miterlimit="10" points="328.049,510.579 322.606,515.34 
		314.443,513.979 313.084,520.104 316.485,522.144 315.805,545.958 321.926,546.637 325.328,543.235 330.091,544.596 
		330.77,528.949 334.852,524.865 335.532,521.464 332.811,518.063 334.172,513.979 328.049,510.579 	"/>
	<polygon fill="none" stroke="#B61E20" stroke-width="0.7857" stroke-miterlimit="10" points="247.096,190.136 237.573,194.898 
		235.532,201.702 228.729,211.227 223.968,215.99 226.688,221.433 221.927,231.638 227.37,230.957 230.089,233.679 229.409,239.121 
		219.887,246.605 223.286,254.089 236.892,254.77 230.771,261.572 234.172,267.696 238.254,269.737 234.852,280.622 222.606,278.58 
		214.443,284.703 217.845,290.828 215.124,293.55 204.239,296.951 200.838,302.395 204.239,303.754 212.402,302.395 
		216.484,309.197 226.688,309.877 219.205,315.319 213.083,315.319 204.919,314.64 201.518,317.36 187.913,324.845 193.355,329.608 
		198.117,325.524 203.56,324.845 210.362,328.246 213.083,324.165 219.205,324.165 223.286,327.565 228.729,324.845 
		237.573,331.647 260.702,333.009 268.185,330.288 269.546,325.524 258.661,324.845 260.702,320.082 269.546,316.681 
		275.668,304.435 265.464,298.311 260.702,296.271 264.783,293.55 263.423,284.703 264.104,271.098 256.62,262.253 256.62,247.285 
		249.818,238.441 245.056,237.761 245.056,235.04 251.859,232.318 249.818,229.597 254.579,229.597 265.464,217.351 264.783,215.31 
		257.98,208.505 247.777,208.505 260.022,198.981 260.702,194.898 247.096,190.136 	"/>
	<polyline fill="none" stroke="#B61E20" stroke-width="0.7857" stroke-miterlimit="10" points="517.845,27.534 511.725,27.534 
		520.564,17.329 509.682,13.927 507.642,21.411 502.198,19.371 504.921,10.526 500.84,9.165 499.478,11.206 494.717,13.248 
		489.275,25.493 488.594,14.608 485.191,15.287 478.39,30.256 468.866,27.534 461.384,39.1 460.021,36.379 443.015,43.181 
		438.254,54.747 426.689,63.593 423.287,77.88 413.083,86.044 405.601,106.455 396.076,120.741 390.635,122.103 383.151,126.864 
		380.431,132.307 383.151,136.389 387.913,135.708 386.554,139.792 374.987,139.111 368.185,147.275 360.702,143.873 
		356.62,147.275 354.581,155.438 345.057,153.398 342.334,157.479 345.057,159.521 345.736,161.563 341.655,161.563 
		338.934,170.407 343.695,172.449 337.573,174.488 336.893,186.735 343.695,186.054 342.334,192.178 334.172,197.621 
		334.172,201.022 337.573,203.063 340.293,209.187 334.172,209.187 333.492,216.67 338.253,218.711 349.817,227.556 
		368.866,213.268 375.668,211.227 378.39,203.063 380.431,209.187 381.791,211.227 382.47,222.112 384.513,223.474 389.273,221.433 
		388.593,208.505 392.675,201.702 398.118,186.054 395.396,179.931 399.478,173.808 398.118,140.471 402.879,135.029 
		409.003,129.586 415.125,133.668 413.764,120.741 419.887,97.61 429.411,80.601 434.172,75.158 436.894,65.632 447.778,61.552 
		450.499,54.747 456.62,54.747 461.384,50.666 459.342,45.223 470.227,43.863 474.308,52.708 493.356,52.708 493.356,36.379 
		506.963,28.895 511.725,35.018 517.845,27.534 	"/>
	<polyline fill="none" stroke="#B61E20" stroke-width="0.7857" stroke-miterlimit="10" points="487.914,98.29 487.914,98.97 
		488.594,98.97 489.956,99.65 490.635,100.332 491.314,101.012 491.995,101.012 492.677,101.692 493.356,102.373 496.758,102.373 
		498.798,113.257 492.677,115.979 483.152,135.708 479.75,136.389 473.627,147.956 470.906,147.956 466.825,154.758 
		472.268,173.808 471.588,181.292 468.866,182.653 470.227,190.816 481.11,193.538 485.191,196.939 488.594,201.702 
		499.478,193.538 522.609,188.095 532.132,181.973 538.253,170.407 542.337,166.324 543.696,156.12 553.221,141.833 
		538.935,130.947 540.296,122.103 533.492,117.34 533.492,113.257 527.367,111.897 530.77,106.455 526.011,101.012 530.091,90.806 
		519.208,79.24 523.966,65.632 512.403,52.708 511.725,34.337 506.963,28.895 493.356,36.379 493.356,52.708 474.308,52.708 
		470.227,43.863 459.342,45.223 462.063,50.666 460.702,52.027 468.866,58.83 479.07,64.273 481.11,81.961 487.914,98.29 	"/>
	<polyline fill="none" stroke="#B61E20" stroke-width="0.7857" stroke-miterlimit="10" points="309.682,465.676 311.042,455.472 
		304.239,456.832 304.919,447.987 304.919,443.223 300.838,440.504 309.002,433.019 308.32,422.133 304.239,422.133 
		302.199,422.814 298.798,426.215 296.077,422.133 305.601,407.165 311.042,407.165 317.165,399.002 321.926,399.002 
		326.008,386.075 333.492,377.231 311.722,365.664 311.722,364.985 306.281,362.264 299.478,357.502 298.118,352.059 293.355,354.1 
		288.594,341.173 279.069,339.132 278.39,330.968 272.267,332.329 265.464,337.091 263.423,343.895 257.98,346.616 247.777,350.018 
		247.096,353.419 240.973,356.141 232.811,352.059 232.811,345.255 228.729,343.214 226.008,343.895 226.688,357.502 
		222.606,361.583 217.845,358.182 214.443,358.862 213.764,356.82 211.722,353.419 199.478,352.739 188.593,352.059 187.232,354.1 
		191.314,358.182 186.552,360.903 189.954,364.305 191.995,364.305 200.838,373.149 206.28,373.829 210.362,381.313 
		215.124,382.675 211.042,383.354 211.722,392.199 217.845,402.406 215.124,412.61 219.887,420.772 215.124,418.051 
		209.683,433.701 205.599,441.865 200.158,446.625 199.478,450.026 200.838,455.472 219.205,464.994 223.286,464.316 
		228.049,464.994 234.852,469.077 234.852,471.797 246.416,477.242 251.859,475.198 253.219,465.676 268.185,462.274 
		274.987,463.635 284.513,471.119 293.355,473.842 302.879,471.119 306.281,466.357 309.682,465.676 	"/>
	<polyline fill="none" stroke="#B61E20" stroke-width="0.7857" stroke-miterlimit="10" points="113.763,439.144 109,423.497 
		132.13,417.371 135.532,423.497 153.899,426.215 156.621,431.658 176.348,437.783 182.47,443.905 187.232,441.865 190.634,441.185 
		191.314,445.268 200.838,446.625 200.838,445.946 200.158,446.625 199.478,450.026 200.838,455.472 219.205,464.994 
		223.286,464.316 228.049,464.994 234.852,469.077 234.852,471.797 246.416,477.242 251.859,475.198 257.98,479.963 
		254.579,484.728 253.899,488.129 221.247,496.971 220.566,501.735 201.518,512.62 200.838,524.865 204.239,531.671 196.076,533.71 
		187.232,541.194 187.232,544.596 181.111,547.315 178.389,544.596 171.587,547.315 165.464,553.439 139.613,547.315 
		119.885,551.398 111.722,542.557 111.042,531.671 104.919,526.226 98.116,527.589 96.077,526.226 101.518,515.34 105.599,513.979 
		106.279,507.178 111.042,501.735 110.362,486.766 112.402,482.004 118.524,481.326 118.524,477.242 123.287,467.718 
		130.09,463.635 135.532,460.912 131.451,448.668 127.368,447.987 117.165,445.268 113.763,439.144 	"/>
	<polyline fill="none" stroke="#B61E20" stroke-width="0.7857" stroke-miterlimit="10" points="96.077,526.226 87.912,522.144 
		81.791,522.824 81.109,520.104 91.993,498.333 86.552,496.971 88.592,490.849 83.151,490.849 83.831,480.644 90.633,478.603 
		97.437,472.479 104.919,458.872 109,439.822 113.763,439.144 117.165,445.268 127.368,447.987 131.451,448.668 135.532,460.912 
		130.09,463.635 123.287,467.718 118.524,477.242 118.524,481.326 112.402,482.004 110.362,486.766 111.042,501.735 
		106.279,507.178 105.599,513.979 101.518,515.34 96.077,526.226 	"/>
	<polygon fill="none" stroke="#B61E20" stroke-width="0.7857" stroke-miterlimit="10" points="217.845,248.646 213.083,238.441 
		206.96,238.441 208.321,235.04 205.599,233.679 202.879,232.999 191.995,235.04 187.913,239.121 187.913,245.925 181.791,245.925 
		173.626,241.162 173.626,247.966 166.825,253.408 172.266,261.572 167.505,266.335 165.464,269.057 170.225,268.376 
		173.626,266.335 165.464,273.138 155.259,271.778 155.259,279.262 158.66,280.622 153.899,284.703 158.66,292.188 183.151,287.427 
		187.913,284.703 194.715,286.745 206.28,270.417 205.599,259.533 213.083,259.533 	"/>
	<polyline fill="none" stroke="#B61E20" stroke-width="0.7857" stroke-miterlimit="10" points="278.39,330.968 279.069,339.132 
		288.594,341.173 293.355,354.1 298.118,352.059 299.478,357.502 306.281,362.264 311.042,354.1 311.042,344.575 306.281,344.575 
		304.919,339.812 309.002,337.091 304.919,334.369 304.919,330.288 295.396,330.288 288.594,333.009 285.191,331.647 
		283.833,329.608 278.39,330.968 	"/>
	<polyline fill="none" stroke="#B61E20" stroke-width="0.7857" stroke-miterlimit="10" points="311.042,344.575 306.281,344.575 
		304.919,339.812 309.002,337.091 304.919,334.369 304.919,330.288 295.396,330.288 288.594,333.009 285.191,331.647 
		283.833,329.608 286.552,328.927 294.717,324.165 295.396,321.442 305.601,307.837 310.362,311.918 307.641,315.319 
		306.961,318.722 315.805,316 313.763,310.558 315.124,299.672 331.45,301.714 330.77,307.837 325.328,313.959 327.369,318.722 
		315.124,328.927 314.443,337.772 311.722,340.492 311.042,344.575 	"/>
	<polyline fill="none" stroke="#B61E20" stroke-width="0.7857" stroke-miterlimit="10" points="331.45,301.714 330.77,307.837 
		325.328,313.959 327.369,318.722 315.124,328.927 314.443,337.772 311.722,340.492 311.042,344.575 311.042,354.1 311.722,365.664 
		333.492,377.231 326.008,386.075 321.926,399.002 326.008,403.085 332.13,398.323 335.532,398.323 340.976,402.406 
		346.416,403.085 353.22,402.406 357.301,401.725 357.301,405.808 371.586,402.406 371.586,406.486 379.751,406.486 
		379.751,394.922 391.315,388.798 385.872,373.829 379.751,373.149 375.668,357.502 391.315,354.1 396.076,351.378 400.157,345.255 
		403.56,345.255 406.28,347.296 407.641,345.255 404.241,333.688 406.28,326.886 401.519,322.804 402.199,319.401 406.961,317.36 
		405.601,304.435 394.036,294.909 389.273,291.508 381.791,295.589 370.227,296.951 373.628,290.828 364.784,289.466 
		360.021,283.343 350.498,281.984 349.817,290.146 352.539,296.951 346.416,296.951 341.655,302.395 339.613,298.311 
		331.45,298.311 331.45,301.714 	"/>
	<polyline fill="none" stroke="#B61E20" stroke-width="0.7857" stroke-miterlimit="10" points="360.021,283.343 361.382,273.819 
		368.185,261.572 372.947,261.572 373.628,255.45 368.185,251.368 369.547,247.966 360.702,246.605 360.702,252.048 355.94,250.007 
		353.899,252.048 349.817,252.048 347.777,269.057 350.498,271.778 350.498,281.984 360.021,283.343 	"/>
	<polygon fill="none" stroke="#B61E20" stroke-width="0.7857" stroke-miterlimit="10" points="368.185,269.057 372.947,276.541 
		368.866,278.58 364.104,273.138 	"/>
	<polygon fill="none" stroke="#B61E20" stroke-width="0.7857" stroke-miterlimit="10" points="371.586,280.622 367.505,281.302 
		367.505,284.703 370.906,284.703 	"/>
	<polygon fill="none" stroke="#B61E20" stroke-width="0.7857" stroke-miterlimit="10" points="372.947,284.703 376.349,282.664 
		380.431,284.023 380.431,286.065 375.668,288.107 	"/>
	<polyline fill="none" stroke="#B61E20" stroke-width="0.7857" stroke-miterlimit="10" points="387.913,264.293 386.554,277.221 
		383.151,281.302 378.39,276.541 375.668,270.417 379.751,265.655 383.151,269.057 383.832,264.293 387.913,264.293 	"/>
	<polygon fill="none" stroke="#B61E20" stroke-width="0.7857" stroke-miterlimit="10" points="396.757,286.065 401.519,292.188 
		400.157,294.909 396.076,292.188 394.716,290.146 	"/>
	<polygon fill="none" stroke="#B61E20" stroke-width="0.7857" stroke-miterlimit="10" points="411.724,278.58 415.125,283.343 
		411.042,282.664 409.003,279.942 	"/>
	<polygon fill="none" stroke="#B61E20" stroke-width="0.7857" stroke-miterlimit="10" points="372.947,235.04 364.784,241.162 
		351.18,244.564 350.498,249.327 353.22,249.327 357.301,245.243 360.702,244.564 368.185,245.925 372.947,243.204 	"/>
	<polygon fill="none" stroke="#B61E20" stroke-width="0.7857" stroke-miterlimit="10" points="402.879,564.325 383.151,569.769 
		379.069,564.325 370.906,565.686 366.825,564.325 365.465,569.769 366.825,576.571 370.227,576.571 378.39,581.336 
		389.273,586.775 389.273,588.82 398.118,590.858 399.478,584.736 403.56,584.736 404.921,582.695 400.157,577.935 401.519,571.132 
		404.921,565.686 	"/>
	<polygon fill="none" stroke="#B61E20" stroke-width="0.7857" stroke-miterlimit="10" points="223.286,259.533 220.566,263.614 
		222.606,264.974 225.328,262.934 226.008,259.533 	"/>
	<polyline fill="none" stroke="#B61E20" stroke-width="0.7857" stroke-miterlimit="10" points="204.919,259.533 213.083,259.533 
		217.845,248.646 213.083,238.441 206.96,238.441 208.321,235.04 205.599,233.679 202.923,233.01 196.274,242.171 191.995,250.007 
		194.035,253.408 196.076,254.77 201.518,253.408 204.919,256.129 204.919,259.533 	"/>
	<polygon fill="none" stroke="#B61E20" stroke-width="0.7857" stroke-miterlimit="10" points="220.566,218.711 217.165,222.112 
		219.205,224.833 221.927,223.474 222.606,221.433 	"/>
	<polygon fill="none" stroke="#B61E20" stroke-width="0.7857" stroke-miterlimit="10" points="215.804,206.465 221.247,196.939 
		226.008,196.939 231.451,192.178 227.37,188.095 221.927,192.858 213.764,198.981 	"/>
	<polygon fill="none" stroke="#B61E20" stroke-width="0.7857" stroke-miterlimit="10" points="221.247,204.424 223.968,208.505 
		227.37,203.744 222.606,202.382 	"/>
	<polygon fill="none" stroke="#B61E20" stroke-width="0.7857" stroke-miterlimit="10" points="262.063,191.382 265.464,188.66 
		260.702,183.899 258.661,185.939 	"/>
	<polygon fill="none" stroke="#B61E20" stroke-width="0.7857" stroke-miterlimit="10" points="282.471,166.324 280.431,173.128 
		281.11,179.25 285.191,175.168 285.191,165.644 	"/>
	<polyline fill="none" stroke="#B61E20" stroke-width="0.7857" stroke-miterlimit="10" points="384.513,223.474 385.192,229.597 
		385.192,241.842 393.355,258.17 389.955,264.974 394.036,276.541 400.157,276.541 404.241,279.262 409.003,267.696 
		423.287,265.655 426.01,258.851 432.131,243.884 428.049,236.399 432.813,236.399 431.45,224.153 443.015,217.351 444.377,220.071 
		452.539,198.981 445.056,189.457 438.254,188.095 437.574,173.128 439.613,172.449 439.613,157.479 443.015,156.12 453.9,142.513 
		457.982,142.513 470.906,120.741 467.506,118.7 476.35,102.373 481.11,101.692 487.233,98.29 481.11,81.961 479.07,64.273 
		467.506,58.15 460.021,52.027 456.62,54.747 450.499,54.747 447.778,61.552 436.894,65.632 434.172,75.158 429.411,80.601 
		419.887,97.61 413.764,120.741 415.125,133.668 409.003,129.586 402.879,135.029 398.118,140.471 399.478,173.808 395.396,179.931 
		398.118,186.054 392.675,201.702 388.593,208.505 389.273,221.433 384.513,223.474 	"/>
	<polygon fill="none" stroke="#B61E20" stroke-width="0.7857" stroke-miterlimit="10" points="496.758,296.271 493.356,290.146 
		488.594,289.466 476.35,289.466 460.702,290.146 452.539,294.909 445.736,288.786 435.532,286.065 428.049,292.188 
		409.003,298.311 405.601,304.435 406.961,317.36 402.199,319.401 401.519,322.804 406.28,326.886 404.241,333.688 407.641,345.255 
		406.28,347.977 411.724,352.059 423.287,354.778 422.607,359.542 426.01,362.264 430.091,360.221 437.574,363.625 438.254,369.748 
		446.416,369.068 449.817,377.231 459.342,373.149 465.465,377.231 480.431,375.871 489.275,381.313 494.036,369.748 
		501.52,362.264 511.725,356.82 511.044,354.1 505.601,352.059 498.798,332.329 496.077,324.165 502.198,318.042 	"/>
	<polyline fill="none" stroke="#B61E20" stroke-width="0.7857" stroke-miterlimit="10" points="391.315,388.798 385.872,373.829 
		379.751,373.149 375.668,357.502 391.315,354.1 396.076,351.378 400.157,345.255 403.56,345.255 406.961,346.616 406.28,347.977 
		411.724,352.059 423.287,354.778 422.607,359.542 426.01,362.264 430.091,360.221 437.574,363.625 438.254,369.748 
		446.416,369.068 447.778,372.469 443.696,374.511 436.894,377.231 430.091,382.675 428.049,388.119 413.764,386.757 
		409.683,384.034 402.199,388.119 391.315,388.798 	"/>
	<polyline fill="none" stroke="#B61E20" stroke-width="0.7857" stroke-miterlimit="10" points="352.539,413.97 357.301,415.33 
		362.063,412.61 374.309,415.33 381.111,423.497 389.273,426.897 399.478,426.215 404.921,421.452 408.322,424.854 417.165,418.731 
		423.968,409.888 419.887,405.808 428.729,403.764 428.049,388.119 413.764,386.757 409.683,384.034 402.199,388.119 
		391.315,388.798 379.751,394.922 379.751,406.486 371.586,406.486 371.586,402.406 357.301,405.808 357.301,401.725 
		353.22,402.406 346.416,403.085 346.416,407.847 345.736,412.61 352.539,413.97 	"/>
	<polyline fill="none" stroke="#B61E20" stroke-width="0.7857" stroke-miterlimit="10" points="321.926,399.002 326.008,403.085 
		332.13,398.323 335.532,398.323 340.976,402.406 346.416,403.085 346.416,407.847 345.736,412.61 352.539,413.97 351.859,420.095 
		349.817,422.133 344.377,421.452 341.655,424.854 337.573,420.772 330.77,427.579 326.689,422.814 319.886,429.618 
		309.002,425.535 308.32,422.133 304.239,422.133 302.199,422.814 298.798,426.215 296.077,422.133 305.601,407.165 
		311.042,407.165 317.165,399.002 321.926,399.002 	"/>
	<polyline fill="none" stroke="#B61E20" stroke-width="0.7857" stroke-miterlimit="10" points="309.682,465.676 316.485,464.994 
		325.328,456.153 330.77,456.153 336.212,459.555 342.334,465.676 346.416,474.521 347.097,483.364 357.98,496.292 374.309,515.34 
		387.233,516.021 388.593,523.506 396.757,524.865 400.157,532.351 406.961,536.43 409.683,536.43 414.443,555.481 409.003,560.246 
		407.641,572.488 411.042,572.488 421.928,561.603 422.607,554.121 428.049,552.079 428.049,543.914 419.887,544.596 
		428.049,528.949 436.214,532.351 439.613,539.832 445.736,532.351 436.214,523.506 421.247,513.979 414.443,509.218 
		418.526,507.178 417.165,505.136 400.157,501.735 395.396,499.015 387.233,484.046 380.431,469.077 372.266,461.593 
		373.628,453.43 372.266,445.268 374.987,441.865 379.751,439.144 389.273,439.822 392.675,435.739 387.913,433.019 
		389.273,426.897 381.111,423.497 374.309,415.33 362.063,412.61 357.301,415.33 352.539,413.97 351.859,420.095 349.817,422.133 
		344.377,421.452 341.655,424.854 337.573,420.772 330.77,427.579 326.689,422.814 319.886,429.618 309.002,425.535 
		309.002,433.019 300.838,440.504 304.919,443.223 304.919,447.987 304.239,456.832 311.042,455.472 309.682,465.676 	"/>
	<polyline fill="none" stroke="#B61E20" stroke-width="0.7857" stroke-miterlimit="10" points="417.845,418.731 417.165,418.731 
		408.322,424.854 404.921,421.452 399.478,426.215 389.273,426.897 387.913,433.019 392.675,435.739 389.955,439.822 
		385.872,443.905 390.635,443.223 397.438,440.504 405.601,442.545 406.28,438.461 410.362,431.658 416.484,428.936 
		424.647,426.897 421.928,424.174 421.247,420.772 417.845,418.731 	"/>
	<polyline fill="none" stroke="#B61E20" stroke-width="0.7857" stroke-miterlimit="10" points="445.056,441.865 446.416,445.268 
		449.817,446.625 453.9,446.625 455.261,447.987 452.539,451.389 452.539,455.472 449.817,455.472 446.416,451.389 438.254,451.389 
		426.689,447.987 421.247,447.987 418.526,452.751 413.764,448.668 411.724,451.389 417.165,464.994 424.647,474.521 
		432.131,483.364 432.813,485.406 433.491,486.766 441.655,490.167 440.976,494.25 433.491,490.849 426.01,486.766 432.131,485.406 
		420.566,478.603 415.125,478.603 404.921,464.994 408.322,464.316 402.199,451.389 396.757,446.625 389.273,453.43 
		385.872,443.905 390.635,443.223 397.438,440.504 405.601,442.545 406.28,438.461 410.362,431.658 416.484,428.936 
		424.647,426.897 427.369,430.3 433.491,434.382 439.613,441.185 445.056,441.865 	"/>
	<polygon fill="none" stroke="#B61E20" stroke-width="0.7857" stroke-miterlimit="10" points="430.091,262.934 436.214,247.966 
		433.491,245.243 428.049,258.17 428.049,262.934 430.091,262.934 	"/>
	<polyline fill="none" stroke="#B61E20" stroke-width="0.7857" stroke-miterlimit="10" points="423.968,426.897 427.369,430.3 
		433.491,434.382 439.613,441.185 445.056,441.865 446.416,438.461 449.817,438.461 453.219,433.701 460.702,435.061 
		469.546,434.382 472.948,430.3 479.07,428.257 487.914,412.61 485.874,410.565 494.717,402.406 491.314,396.279 487.914,392.199 
		483.152,392.199 482.473,390.157 470.227,390.839 462.063,396.96 453.9,395.601 444.377,405.808 439.613,407.165 432.813,401.725 
		428.729,399.684 428.729,403.764 419.887,405.808 423.968,409.888 417.845,418.051 421.247,420.772 421.928,424.174 
		423.968,426.897 	"/>
	<polyline fill="none" stroke="#B61E20" stroke-width="0.7857" stroke-miterlimit="10" points="487.914,392.199 487.914,385.395 
		489.275,380.634 489.956,380.634 494.036,369.748 501.52,362.264 511.725,356.82 511.044,354.1 505.601,352.059 498.798,332.329 
		536.894,324.845 571.586,324.165 583.832,312.599 587.912,317.36 591.995,317.36 591.995,313.959 605.601,313.278 611.043,320.082 
		607.643,329.608 609.684,337.091 620.569,339.132 622.607,345.255 645.056,343.214 653.221,346.616 661.384,346.616 
		662.063,353.419 666.826,354.1 667.508,360.221 672.267,362.945 676.35,373.829 668.187,379.272 669.546,386.075 664.785,388.119 
		665.464,394.24 658.66,394.922 648.456,400.361 638.935,408.527 647.777,418.731 659.343,418.731 659.343,425.535 643.697,431.658 
		637.573,441.865 629.411,441.865 627.371,431.658 615.124,430.3 615.124,426.897 627.371,417.371 621.927,414.649 617.847,418.731 
		604.919,418.731 600.839,416.693 600.839,413.289 603.562,409.209 592.677,411.247 584.511,419.414 587.233,422.133 
		580.431,435.061 581.109,439.822 581.109,440.504 574.987,436.421 568.866,439.144 565.465,437.102 573.628,424.174 
		574.31,417.371 581.791,416.012 583.832,411.929 578.39,409.888 575.67,405.808 574.987,396.96 571.586,396.96 547.776,385.395 
		536.894,392.878 513.764,396.279 512.403,399.684 498.118,401.044 494.717,401.725 491.314,396.279 489.275,394.24 
		487.914,392.199 	"/>
	<polygon fill="none" stroke="#B61E20" stroke-width="0.7857" stroke-miterlimit="10" points="428.049,388.119 430.091,382.675 
		436.894,377.231 443.696,374.511 447.778,372.469 449.817,377.231 459.342,373.149 465.465,377.231 480.431,375.871 
		489.275,381.313 489.956,380.634 487.914,385.395 487.914,392.199 483.152,392.199 482.473,390.157 470.227,390.839 
		462.063,396.96 453.9,395.601 444.377,405.808 439.613,407.165 432.813,401.725 428.729,399.684 	"/>
	<polygon fill="none" stroke="#B61E20" stroke-width="0.7857" stroke-miterlimit="10" points="488.594,289.466 489.956,280.622 
		474.987,274.499 474.308,274.499 472.268,282.664 470.227,275.179 460.021,282.664 460.702,290.146 476.35,289.466 	"/>
	<polygon fill="none" stroke="#B61E20" stroke-width="0.7857" stroke-miterlimit="10" points="525.329,274.499 513.764,263.614 
		500.84,261.572 488.594,262.934 471.588,267.015 471.588,267.904 474.987,274.499 489.956,280.622 488.594,289.466 
		493.356,290.146 496.758,296.271 519.208,291.508 523.288,286.065 	"/>
	<polygon fill="none" stroke="#B61E20" stroke-width="0.7857" stroke-miterlimit="10" points="471.588,267.015 488.594,262.934 
		500.84,261.572 513.764,263.614 525.329,274.499 538.935,260.893 530.091,237.081 508.322,231.638 498.798,232.999 
		498.118,245.925 493.356,247.966 485.191,241.842 483.152,236.399 474.987,236.399 470.227,247.966 468.866,258.851 	"/>
	<polygon fill="none" stroke="#B61E20" stroke-width="0.7857" stroke-miterlimit="10" points="526.688,204.424 509.002,203.063 
		494.717,207.145 488.594,211.908 495.396,226.195 499.478,225.514 498.798,232.318 508.322,231.638 530.091,237.081 
		526.688,223.474 	"/>
	<polygon fill="none" stroke="#B61E20" stroke-width="0.7857" stroke-miterlimit="10" points="450.499,235.72 444.377,242.524 
		444.377,250.686 451.858,244.564 452.539,238.441 	"/>
	<polygon fill="none" stroke="#B61E20" stroke-width="0.7857" stroke-miterlimit="10" points="485.874,222.793 478.39,222.793 
		478.39,232.318 485.874,225.514 	"/>
	<polygon fill="none" stroke="#B61E20" stroke-width="0.7857" stroke-miterlimit="10" points="487.914,215.31 483.152,218.031 
		477.71,216.67 483.152,212.588 	"/>
	<polygon fill="none" stroke="#B61E20" stroke-width="0.7857" stroke-miterlimit="10" points="441.655,490.167 433.491,486.766 
		432.813,485.406 432.131,483.364 424.647,474.521 417.165,464.994 411.724,451.389 413.764,448.668 418.526,452.751 
		421.247,447.987 426.689,447.987 438.254,451.389 446.416,451.389 449.817,455.472 452.539,455.472 455.261,455.472 453.9,464.994 
		458.662,469.077 455.261,473.842 449.817,473.842 449.817,477.925 446.416,482.683 	"/>
	<polygon fill="none" stroke="#B61E20" stroke-width="0.7857" stroke-miterlimit="10" points="452.539,501.054 457.982,490.167 
		468.866,492.212 470.227,502.415 474.987,499.015 483.152,499.015 486.554,495.613 496.077,496.292 498.798,479.281 
		494.036,470.439 494.036,464.316 498.118,462.274 494.036,454.109 489.956,456.153 481.79,455.472 480.431,446.625 
		475.669,443.905 474.308,437.102 469.546,434.382 460.702,435.061 453.219,433.701 449.817,438.461 446.416,438.461 
		445.056,441.865 446.416,445.268 449.817,446.625 453.9,446.625 455.261,447.987 452.539,451.389 452.539,454.79 452.539,455.472 
		455.261,455.472 453.9,464.994 458.662,469.077 455.261,473.842 449.817,473.842 449.817,477.925 446.416,482.683 441.655,490.167 
		440.976,494.25 445.056,495.613 	"/>
	<polygon fill="none" stroke="#B61E20" stroke-width="0.7857" stroke-miterlimit="10" points="466.145,541.194 472.948,534.392 
		473.627,528.267 478.39,525.545 477.029,522.144 471.588,515.34 470.227,509.218 470.227,502.415 468.866,492.212 457.982,490.167 
		452.539,501.054 454.581,506.499 460.021,507.856 456.62,520.104 456.62,529.627 	"/>
	<polygon fill="none" stroke="#B61E20" stroke-width="0.7857" stroke-miterlimit="10" points="477.029,522.144 497.438,516.703 
		502.198,508.537 498.798,496.971 496.077,496.292 496.077,496.292 486.554,495.613 483.152,499.015 474.987,499.015 
		470.227,502.415 470.227,509.218 471.588,515.34 477.029,522.144 	"/>
	<polygon fill="none" stroke="#B61E20" stroke-width="0.7857" stroke-miterlimit="10" points="565.465,437.102 573.628,424.174 
		574.31,417.371 581.791,416.012 583.832,411.929 578.39,409.888 575.67,405.808 574.987,396.96 571.586,396.96 547.776,385.395 
		536.894,392.878 555.261,409.209 562.063,428.936 560.024,433.019 560.024,435.739 562.063,437.102 564.784,437.102 	"/>
	<polygon fill="none" stroke="#B61E20" stroke-width="0.7857" stroke-miterlimit="10" points="571.586,465.676 572.949,460.233 
		572.269,449.348 571.586,444.586 574.31,443.223 576.351,447.987 581.109,441.185 574.987,436.421 568.866,439.144 
		564.784,437.102 562.063,437.102 560.024,435.739 560.024,433.019 562.063,428.936 555.261,409.209 536.894,392.878 
		513.764,396.279 512.403,399.684 498.118,401.044 494.717,401.725 485.874,410.565 487.914,412.61 479.07,428.257 472.948,430.3 
		469.546,434.382 474.308,437.102 475.669,443.905 480.431,446.625 481.79,455.472 489.956,456.153 494.036,454.109 
		498.118,462.274 499.478,469.077 514.443,469.759 537.571,468.396 540.296,467.039 546.419,462.274 558.663,460.233 
		561.382,463.635 	"/>
	<polygon fill="none" stroke="#B61E20" stroke-width="0.7857" stroke-miterlimit="10" points="565.465,493.568 559.344,488.129 
		565.465,472.479 570.907,471.797 571.586,465.676 561.382,463.635 558.663,460.233 546.419,462.274 540.296,467.039 
		537.571,468.396 514.443,469.759 499.478,469.077 498.118,462.274 494.036,464.316 494.036,470.439 498.798,479.281 
		496.077,496.292 498.798,496.971 502.198,508.537 502.198,509.218 537.571,508.537 539.616,508.537 540.974,505.817 
		540.296,501.735 545.738,499.015 554.579,494.932 558.663,496.971 	"/>
	<polygon fill="none" stroke="#B61E20" stroke-width="0.7857" stroke-miterlimit="10" points="466.145,541.194 471.588,545.276 
		474.308,552.079 479.07,552.079 477.029,557.522 482.473,562.965 491.995,560.246 504.24,562.284 506.963,564.325 502.879,565.004 
		492.677,562.965 482.473,568.408 488.594,578.613 487.233,581.336 493.356,592.222 496.758,587.457 499.478,593.581 
		502.879,590.858 511.725,594.941 509.682,584.736 505.601,576.571 509.682,577.935 514.443,575.89 512.403,571.811 
		515.125,568.408 522.609,571.811 522.609,566.367 509.002,558.201 504.24,554.121 504.921,549.359 507.642,549.359 
		511.725,547.315 500.84,537.111 500.84,526.907 504.24,526.226 512.403,536.43 513.764,533.028 518.527,533.71 516.484,529.627 
		522.609,529.627 514.443,521.464 524.647,517.385 543.018,516.703 543.018,521.464 547.099,521.464 547.099,517.385 
		548.458,513.979 549.82,502.415 545.738,499.015 540.296,501.735 540.974,505.817 539.616,508.537 537.571,508.537 
		502.198,509.218 497.438,516.703 477.029,522.144 478.39,525.545 473.627,528.267 472.948,534.392 	"/>
	<polyline fill="none" stroke="#B61E20" stroke-width="0.7857" stroke-miterlimit="10" points="879.071,153.398 879.071,1 
		662.063,1 659.343,6.443 655.94,6.443 658.66,1.682 651.179,1 652.539,7.125 647.099,4.403 641.656,8.484 641.656,18.009 
		635.532,22.091 633.493,27.534 637.573,33.658 636.214,45.223 631.452,45.223 628.051,42.502 626.69,39.1 620.569,39.1 
		619.888,34.337 626.69,28.214 617.847,22.091 604.919,24.133 612.403,32.297 612.403,46.584 620.569,49.986 623.971,63.593 
		613.085,58.15 609.684,60.19 608.32,68.354 599.479,75.838 597.438,85.363 617.847,100.332 602.199,96.249 589.956,96.93 
		582.473,94.889 579.071,98.29 582.473,105.093 590.635,109.855 593.357,114.619 583.153,115.979 580.431,109.855 571.586,111.217 
		561.382,97.61 564.105,90.126 551.859,79.92 546.419,76.518 542.337,71.757 549.82,75.838 552.541,72.437 558.663,77.2 
		572.949,75.838 589.274,77.2 597.438,67.675 602.199,59.51 600.839,54.747 596.078,51.346 589.274,41.142 579.071,40.46 
		559.344,30.256 550.499,28.214 540.296,35.018 534.853,30.256 539.616,27.534 527.367,22.091 525.329,27.534 517.163,27.534 
		511.725,34.337 512.403,52.708 523.966,65.632 519.208,79.24 530.091,90.806 526.011,101.012 530.77,106.455 527.367,111.897 
		533.492,113.257 533.492,117.34 540.296,122.103 538.935,130.947 553.221,141.833 543.696,156.12 542.337,166.324 538.253,170.407 
		532.813,181.973 532.132,188.775 547.776,192.178 532.132,196.259 526.688,204.424 526.688,223.474 530.091,237.081 
		538.935,260.893 550.499,258.851 564.105,264.293 576.351,279.942 577.028,283.343 587.912,290.828 587.912,294.909 
		580.431,303.754 583.832,312.599 587.912,317.36 591.995,317.36 591.995,313.959 605.601,313.278 611.043,320.082 607.643,329.608 
		609.684,337.091 620.569,339.132 622.607,345.255 645.056,343.214 653.221,346.616 661.384,346.616 662.063,353.419 666.826,354.1 
		667.508,360.221 672.267,362.945 676.35,373.829 668.187,379.272 669.546,385.395 681.792,381.313 685.193,381.313 
		682.471,384.714 668.187,394.922 668.864,397.642 670.909,399.002 674.311,396.96 679.751,400.361 677.031,401.044 676.35,406.486 
		672.948,407.165 670.228,417.371 664.105,419.414 677.712,428.936 702.2,435.061 712.402,441.865 722.606,429.618 769.548,430.3 
		773.628,426.897 780.431,427.579 781.793,431.658 794.036,434.382 811.725,436.421 812.406,439.822 823.289,438.461 
		825.33,434.382 824.649,433.701 800.157,417.371 789.953,401.044 779.749,396.279 777.711,386.757 779.749,373.829 
		778.392,364.305 782.472,364.985 784.514,369.748 791.998,361.583 788.596,356.141 793.355,352.059 787.233,351.378 
		789.953,345.255 785.874,338.452 778.392,336.411 766.146,339.132 764.786,334.369 756.62,334.369 759.344,323.483 753.22,312.599 
		757.983,305.795 759.344,299.672 762.745,296.271 767.507,303.074 774.31,301.714 774.31,296.951 768.866,290.828 781.793,258.17 
		792.677,260.212 798.119,256.129 816.486,254.77 824.649,262.253 826.69,256.129 836.895,254.089 840.975,243.884 847.777,243.884 
		850.498,235.04 864.104,231.638 874.308,235.04 875.67,228.235 878.391,227.556 879.071,211.227 866.826,213.268 862.746,192.858 
		870.906,188.095 870.906,183.333 861.384,186.054 855.262,174.488 879.071,153.398 	"/>
	<polygon fill="none" stroke="#B61E20" stroke-width="0.7857" stroke-miterlimit="10" points="498.798,332.329 536.894,324.845 
		571.586,324.165 583.832,312.599 580.431,303.754 587.912,294.909 587.912,290.828 577.028,283.343 576.351,279.942 
		564.105,264.293 550.499,258.851 538.935,260.893 525.329,274.499 523.288,286.065 519.208,291.508 496.758,296.271 
		502.198,318.042 496.077,324.165 	"/>
</g>
<g id="Calque_2">
</g>
</svg>
